<svg width="300" height="169" viewBox="0 0 300 169" fill="none" xmlns="http://www.w3.org/2000/svg">
<rect width="300" height="168.75" fill="#F6F6F6"/>
<g opacity="0.2">
<path d="M136.5 106.5H163.5C164.693 106.5 165.838 106.026 166.682 105.182C167.526 104.338 168 103.193 168 102V76.2435C167.968 75.0562 167.499 73.9226 166.682 73.0605L156.439 62.8185C155.578 62.002 154.445 61.5325 153.258 61.5H136.5C135.307 61.5 134.162 61.9741 133.318 62.818C132.474 63.6619 132 64.8065 132 66V102C132 103.193 132.474 104.338 133.318 105.182C134.162 106.026 135.307 106.5 136.5 106.5ZM162.879 73.5H157.5C157.102 73.5 156.721 73.342 156.439 73.0607C156.158 72.7794 156 72.3978 156 72V66.621L162.879 73.5ZM135 66C135 65.6022 135.158 65.2206 135.439 64.9393C135.721 64.658 136.102 64.5 136.5 64.5H153V72C153 73.1935 153.474 74.3381 154.318 75.182C155.162 76.0259 156.307 76.5 157.5 76.5H165V102C165 102.398 164.842 102.779 164.561 103.061C164.279 103.342 163.898 103.5 163.5 103.5H136.5C136.102 103.5 135.721 103.342 135.439 103.061C135.158 102.779 135 102.398 135 102V66Z" fill="black"/>
</g>
</svg>
